# Blender 5.2.1 LTS
# www.blender.org
mtllib bed.mtl
o Cube
v 0.375000 0.300000 -0.750000
v 0.375000 0.200000 -0.750000
v 0.375000 0.300000 0.750000
v 0.375000 0.200000 0.750000
v -0.375000 0.300000 -0.750000
v -0.375000 0.200000 -0.750000
v -0.375000 0.300000 0.750000
v -0.375000 0.200000 0.750000
v 0.375000 0.300000 0.727500
v -0.345563 0.430000 -0.691125
v 0.345563 0.430000 -0.691125
v 0.363750 0.400000 0.727500
v -0.363750 0.400000 0.727500
v 0.363750 0.400000 -0.727500
v -0.363750 0.400000 -0.727500
v -0.375000 0.300000 -0.727500
v 0.363750 0.300000 -0.727500
v -0.375000 0.300000 0.727500
v 0.375000 0.400000 0.750000
v -0.375000 0.400000 0.750000
v -0.375000 0.400000 -0.750000
v 0.375000 0.400000 -0.750000
v 0.375000 0.400000 -0.727500
v -0.375000 0.400000 -0.727500
v -0.375000 0.400000 0.727500
v 0.375000 0.400000 0.727500
v 0.375000 0.500000 0.750000
v -0.375000 0.500000 0.750000
v -0.375000 0.600000 -0.750000
v 0.375000 0.600000 -0.750000
v 0.375000 0.600000 -0.727500
v -0.375000 0.600000 -0.727500
v -0.375000 0.500000 0.727500
v 0.375000 0.500000 0.727500
v -0.375000 0.700000 -0.750000
v 0.375000 0.700000 -0.750000
v 0.375000 0.700000 -0.727500
v -0.375000 0.700000 -0.727500
v 0.000000 0.700000 -0.750000
v 0.000000 0.700000 -0.727500
v 0.184688 0.700000 -0.750000
v 0.184688 0.700000 -0.727500
v -0.184688 0.700000 -0.750000
v -0.184688 0.700000 -0.727500
v -0.184688 0.750000 -0.750000
v 0.000000 0.750000 -0.750000
v -0.184688 0.750000 -0.727500
v 0.000000 0.750000 -0.727500
v 0.184688 0.750000 -0.750000
v 0.184688 0.750000 -0.727500
v -0.175453 0.760000 -0.749438
v 0.000000 0.760000 -0.749438
v -0.175453 0.760000 -0.728063
v 0.000000 0.760000 -0.728063
v 0.175453 0.760000 -0.749438
v 0.175453 0.760000 -0.728063
v -0.375000 0.200000 -0.364613
v 0.375000 0.300000 -0.364613
v -0.375000 0.300000 -0.364613
v 0.375000 0.200000 -0.364613
v -0.345563 0.430000 -0.394613
v 0.345563 0.430000 -0.394613
v 0.363750 0.400000 -0.394613
v -0.363750 0.400000 -0.394613
v -0.363750 0.300000 -0.394613
v 0.363750 0.300000 -0.394613
v 0.375000 0.410700 0.719064
v 0.355929 0.441600 0.706598
v -0.374663 0.410700 0.719064
v -0.355929 0.441600 0.706598
v 0.355929 0.441600 -0.380812
v -0.374663 0.300000 0.719064
v 0.374663 0.300000 0.719064
v 0.374663 0.410700 -0.380812
v 0.374663 0.300000 -0.380812
v -0.355929 0.441600 -0.380812
v -0.374663 0.410700 -0.380812
v -0.374663 0.300000 -0.380812
v 0.375000 0.300000 -0.727500
v -0.363750 0.300000 -0.727500
v 0.372389 0.000130 0.712373
v 0.355589 0.000130 0.716875
v 0.343291 0.000130 0.729173
v 0.338789 0.000130 0.745973
v 0.343291 0.000130 0.762773
v 0.355589 0.000130 0.775072
v 0.372389 0.000130 0.779573
v 0.389189 0.000130 0.775072
v 0.401487 0.000130 0.762773
v 0.405989 0.000130 0.745973
v 0.401487 0.000130 0.729173
v 0.389189 0.000130 0.716875
v 0.372389 0.805730 0.712373
v 0.355589 0.805730 0.716875
v 0.343291 0.805730 0.729173
v 0.338789 0.805730 0.745973
v 0.343291 0.805730 0.762773
v 0.355589 0.805730 0.775072
v 0.372389 0.805730 0.779573
v 0.389189 0.805730 0.775072
v 0.401487 0.805730 0.762773
v 0.405989 0.805730 0.745973
v 0.401487 0.805730 0.729173
v 0.389189 0.805730 0.716875
v 0.358949 0.825730 0.722694
v 0.372389 0.825730 0.719093
v 0.349110 0.825730 0.732533
v 0.345509 0.825730 0.745973
v 0.349110 0.825730 0.759413
v 0.358949 0.825730 0.769252
v 0.372389 0.825730 0.772853
v 0.385829 0.825730 0.769252
v 0.395668 0.825730 0.759413
v 0.399269 0.825730 0.745973
v 0.395668 0.825730 0.732533
v 0.385829 0.825730 0.722694
v 0.367013 0.835730 0.736662
v 0.372389 0.835730 0.735221
v 0.363078 0.835730 0.740597
v 0.361637 0.835730 0.745973
v 0.363078 0.835730 0.751349
v 0.367013 0.835730 0.755285
v 0.372389 0.835730 0.756725
v 0.377765 0.835730 0.755285
v 0.381701 0.835730 0.751349
v 0.383141 0.835730 0.745973
v 0.381701 0.835730 0.740597
v 0.377765 0.835730 0.736662
v 0.000000 0.500000 0.750000
v -0.372389 0.000130 0.712373
v -0.355589 0.000130 0.716875
v -0.343291 0.000130 0.729173
v -0.338789 0.000130 0.745973
v -0.343291 0.000130 0.762773
v -0.355589 0.000130 0.775072
v -0.372389 0.000130 0.779573
v -0.389189 0.000130 0.775072
v -0.401487 0.000130 0.762773
v -0.405989 0.000130 0.745973
v -0.401487 0.000130 0.729173
v -0.389189 0.000130 0.716875
v -0.372389 0.805730 0.712373
v -0.355589 0.805730 0.716875
v -0.343291 0.805730 0.729173
v -0.338789 0.805730 0.745973
v -0.343291 0.805730 0.762773
v -0.355589 0.805730 0.775072
v -0.372389 0.805730 0.779573
v -0.389189 0.805730 0.775072
v -0.401487 0.805730 0.762773
v -0.405989 0.805730 0.745973
v -0.401487 0.805730 0.729173
v -0.389189 0.805730 0.716875
v -0.358949 0.825730 0.722694
v -0.372389 0.825730 0.719093
v -0.349110 0.825730 0.732533
v -0.345509 0.825730 0.745973
v -0.349110 0.825730 0.759413
v -0.358949 0.825730 0.769252
v -0.372389 0.825730 0.772853
v -0.385829 0.825730 0.769252
v -0.395668 0.825730 0.759413
v -0.399269 0.825730 0.745973
v -0.395668 0.825730 0.732533
v -0.385829 0.825730 0.722694
v -0.367013 0.835730 0.736662
v -0.372389 0.835730 0.735221
v -0.363078 0.835730 0.740597
v -0.361637 0.835730 0.745973
v -0.363078 0.835730 0.751349
v -0.367013 0.835730 0.755285
v -0.372389 0.835730 0.756725
v -0.377765 0.835730 0.755285
v -0.381701 0.835730 0.751349
v -0.383141 0.835730 0.745973
v -0.381701 0.835730 0.740597
v -0.377765 0.835730 0.736662
v 0.372389 0.000130 -0.767627
v 0.355589 0.000130 -0.763125
v 0.343291 0.000130 -0.750827
v 0.338789 0.000130 -0.734027
v 0.343291 0.000130 -0.717227
v 0.355589 0.000130 -0.704928
v 0.372389 0.000130 -0.700427
v 0.389189 0.000130 -0.704928
v 0.401487 0.000130 -0.717227
v 0.405989 0.000130 -0.734027
v 0.401487 0.000130 -0.750827
v 0.389189 0.000130 -0.763125
v 0.372389 0.805730 -0.767627
v 0.355589 0.805730 -0.763125
v 0.343291 0.805730 -0.750827
v 0.338789 0.805730 -0.734027
v 0.343291 0.805730 -0.717227
v 0.355589 0.805730 -0.704928
v 0.372389 0.805730 -0.700427
v 0.389189 0.805730 -0.704928
v 0.401487 0.805730 -0.717227
v 0.405989 0.805730 -0.734027
v 0.401487 0.805730 -0.750827
v 0.389189 0.805730 -0.763125
v 0.358949 0.825730 -0.757306
v 0.372389 0.825730 -0.760907
v 0.349110 0.825730 -0.747467
v 0.345509 0.825730 -0.734027
v 0.349110 0.825730 -0.720587
v 0.358949 0.825730 -0.710748
v 0.372389 0.825730 -0.707147
v 0.385829 0.825730 -0.710748
v 0.395668 0.825730 -0.720587
v 0.399269 0.825730 -0.734027
v 0.395668 0.825730 -0.747467
v 0.385829 0.825730 -0.757306
v 0.367013 0.835730 -0.743338
v 0.372389 0.835730 -0.744779
v 0.363078 0.835730 -0.739403
v 0.361637 0.835730 -0.734027
v 0.363078 0.835730 -0.728651
v 0.367013 0.835730 -0.724715
v 0.372389 0.835730 -0.723275
v 0.377765 0.835730 -0.724715
v 0.381701 0.835730 -0.728651
v 0.383141 0.835730 -0.734027
v 0.381701 0.835730 -0.739403
v 0.377765 0.835730 -0.743338
v -0.372389 0.000130 -0.767627
v -0.355589 0.000130 -0.763125
v -0.343291 0.000130 -0.750827
v -0.338789 0.000130 -0.734027
v -0.343291 0.000130 -0.717227
v -0.355589 0.000130 -0.704928
v -0.372389 0.000130 -0.700427
v -0.389189 0.000130 -0.704928
v -0.401487 0.000130 -0.717227
v -0.405989 0.000130 -0.734027
v -0.401487 0.000130 -0.750827
v -0.389189 0.000130 -0.763125
v -0.372389 0.805730 -0.767627
v -0.355589 0.805730 -0.763125
v -0.343291 0.805730 -0.750827
v -0.338789 0.805730 -0.734027
v -0.343291 0.805730 -0.717227
v -0.355589 0.805730 -0.704928
v -0.372389 0.805730 -0.700427
v -0.389189 0.805730 -0.704928
v -0.401487 0.805730 -0.717227
v -0.405989 0.805730 -0.734027
v -0.401487 0.805730 -0.750827
v -0.389189 0.805730 -0.763125
v -0.358949 0.825730 -0.757306
v -0.372389 0.825730 -0.760907
v -0.349110 0.825730 -0.747467
v -0.345509 0.825730 -0.734027
v -0.349110 0.825730 -0.720587
v -0.358949 0.825730 -0.710748
v -0.372389 0.825730 -0.707147
v -0.385829 0.825730 -0.710748
v -0.395668 0.825730 -0.720587
v -0.399269 0.825730 -0.734027
v -0.395668 0.825730 -0.747467
v -0.385829 0.825730 -0.757306
v -0.367013 0.835730 -0.743338
v -0.372389 0.835730 -0.744779
v -0.363078 0.835730 -0.739403
v -0.361637 0.835730 -0.734027
v -0.363078 0.835730 -0.728651
v -0.367013 0.835730 -0.724715
v -0.372389 0.835730 -0.723275
v -0.377765 0.835730 -0.724715
v -0.381701 0.835730 -0.728651
v -0.383141 0.835730 -0.734027
v -0.381701 0.835730 -0.739403
v -0.377765 0.835730 -0.743338
v -0.248805 0.430000 -0.661474
v 0.248805 0.430000 -0.661474
v -0.248805 0.430000 -0.424264
v 0.248805 0.430000 -0.424264
v -0.248805 0.500000 -0.661474
v 0.248805 0.500000 -0.661474
v -0.248805 0.500000 -0.424264
v 0.248805 0.500000 -0.424264
v -0.291102 0.455000 -0.697055
v 0.291102 0.455000 -0.697055
v 0.291102 0.455000 -0.388682
v -0.291102 0.455000 -0.388682
v 0.269954 0.442500 -0.686085
v -0.269954 0.442500 -0.399653
v -0.269954 0.442500 -0.686085
v 0.269954 0.442500 -0.399653
v -0.286151 0.477500 -0.687449
v 0.286151 0.477500 -0.398289
v 0.286151 0.477500 -0.687449
v -0.286151 0.477500 -0.398289
v 0.000000 0.500000 0.750000
vn -1.0000 -0.0000 -0.0000
vn -0.0000 -0.0000 1.0000
vn -0.0000 -1.0000 -0.0000
vn 1.0000 -0.0000 -0.0000
vn -0.0000 -0.0000 -1.0000
vn -0.0000 1.0000 -0.0000
vn -0.0000 0.6191 0.7853
vn 0.5815 0.3525 -0.7332
vn -0.7844 -0.0000 -0.6203
vn -0.0000 0.7715 -0.6363
vn 0.8551 0.5184 -0.0000
vn 0.9687 -0.0545 0.2422
vn -0.0000 0.0562 0.9984
vn -0.7347 0.6784 -0.0000
vn -0.0000 0.0562 -0.9984
vn 0.7347 0.6784 -0.0000
vn -0.8335 0.0445 0.5507
vn 0.7844 -0.0000 -0.6203
vn -0.8551 0.5184 -0.0000
vn -0.0000 0.3741 0.9274
vn 0.8531 0.5218 -0.0001
vn 1.0000 -0.0015 -0.0002
vn -0.5815 0.3525 -0.7332
vn 0.8263 0.0428 0.5616
vn -0.0000 0.7655 -0.6434
vn -0.7071 -0.0000 -0.7071
vn 0.9659 -0.0000 0.2588
vn -0.2588 -0.0000 0.9659
vn -0.9659 -0.0000 -0.2588
vn 0.9659 -0.0000 -0.2588
vn 0.2588 -0.0000 0.9659
vn -0.9659 -0.0000 0.2588
vn 0.7071 -0.0000 -0.7071
vn -0.2588 -0.0000 -0.9659
vn 0.7071 -0.0000 0.7071
vn -0.7071 -0.0000 0.7071
vn 0.2588 -0.0000 -0.9659
vn -0.6726 0.3087 0.6726
vn 0.3820 0.8415 0.3820
vn 0.2462 0.3087 -0.9187
vn -0.6726 0.3087 -0.6726
vn 0.9187 0.3087 0.2462
vn -0.2462 0.3087 0.9187
vn -0.9187 0.3087 -0.2462
vn 0.9187 0.3087 -0.2462
vn 0.2462 0.3087 0.9188
vn -0.9187 0.3087 0.2462
vn 0.6726 0.3087 -0.6726
vn -0.2462 0.3087 -0.9187
vn 0.6726 0.3087 0.6726
vn -0.3820 0.8415 0.3820
vn 0.1398 0.8415 -0.5218
vn -0.3820 0.8415 -0.3820
vn 0.5218 0.8415 0.1398
vn -0.1398 0.8415 0.5218
vn -0.5218 0.8415 -0.1398
vn 0.5218 0.8415 -0.1398
vn 0.1398 0.8415 0.5218
vn -0.5218 0.8415 0.1398
vn 0.3820 0.8415 -0.3820
vn -0.1398 0.8415 -0.5218
vn -0.6726 -0.3087 -0.6726
vn 0.3820 -0.8415 -0.3820
vn 0.2462 -0.3087 0.9187
vn -0.6726 -0.3087 0.6726
vn 0.9187 -0.3087 -0.2462
vn -0.2462 -0.3087 -0.9188
vn -0.9187 -0.3087 0.2462
vn 0.9187 -0.3087 0.2462
vn 0.2462 -0.3087 -0.9188
vn -0.9187 -0.3087 -0.2462
vn 0.6726 -0.3087 0.6726
vn -0.2462 -0.3087 0.9187
vn 0.6726 -0.3087 -0.6726
vn -0.3820 -0.8415 -0.3820
vn 0.1398 -0.8415 0.5218
vn -0.3820 -0.8415 0.3820
vn 0.5218 -0.8415 -0.1398
vn -0.1398 -0.8415 -0.5218
vn -0.5218 -0.8415 0.1398
vn 0.5218 -0.8415 0.1398
vn 0.1398 -0.8415 -0.5218
vn -0.5218 -0.8415 -0.1398
vn 0.3820 -0.8415 0.3820
vn -0.1398 -0.8415 0.5218
vn -0.0000 0.7559 -0.6547
vn -0.0000 0.7559 0.6547
vn -0.5161 0.8566 -0.0000
vn 0.5161 0.8566 -0.0000
vn 0.5088 -0.8609 -0.0000
vn -0.5088 -0.8609 -0.0000
vn -0.0000 -0.6596 0.7516
vn -0.0000 -0.6596 -0.7516
vn -0.0000 -0.8916 -0.4528
vn -0.0000 -0.8916 0.4528
vn 0.9766 0.2149 -0.0000
vn -0.9766 0.2149 -0.0000
vn -0.0000 0.3927 0.9197
vn -0.0000 0.3927 -0.9197
vt 0.499015 0.730480
vt 0.416995 0.894520
vt 0.499015 0.894520
vt 0.499015 0.976540
vt 0.416995 0.976540
vt 0.416995 0.709975
vt 0.499015 0.709975
vt 0.416995 0.730480
vt 0.334975 0.833005
vt 0.416995 0.833005
vt 0.334975 0.894520
vt 0.499015 0.833005
vt 0.499015 0.812500
vt 0.416995 0.812500
vt 0.133395 0.284042
vt 0.109455 0.246133
vt 0.134694 0.230195
vt 0.158634 0.268103
vt 0.499015 0.648460
vt 0.524783 0.706691
vt 0.499015 0.822752
vt 0.483569 0.834046
vt 0.705976 0.378005
vt 0.872072 0.378005
vt 0.874640 0.384112
vt 0.703485 0.384112
vt 0.495859 0.836195
vt 0.501440 0.831602
vt 0.467481 0.836152
vt 0.502120 0.880170
vt 0.142905 0.461212
vt 0.109455 0.444418
vt 0.134679 0.394176
vt 0.168129 0.410969
vt 0.867920 0.395128
vt 0.870286 0.401749
vt 0.874563 0.384112
vt 0.705976 0.320927
vt 0.703485 0.320927
vt 0.144563 0.290460
vt 0.148009 0.385406
vt 0.175197 0.393379
vt 0.499015 0.935530
vt 0.499015 0.750985
vt 0.499015 0.771490
vt 0.499015 0.791995
vt 0.487553 0.766395
vt 0.165747 0.281483
vt 0.872072 0.320927
vt 0.874563 0.320927
vt 0.499015 0.720228
vt 0.334975 0.812500
vt 0.416995 0.648460
vt 0.636277 0.515426
vt 0.855910 0.515426
vt 0.853421 0.484574
vt 0.636277 0.484574
vt 0.851535 0.320927
vt 0.725978 0.320927
vt 0.725978 0.384112
vt 0.851535 0.384112
vt 0.870286 0.423810
vt 0.707761 0.423810
vt 0.707761 0.299677
vt 0.870286 0.299677
vt 0.707761 0.401749
vt 0.851535 0.401749
vt 0.727401 0.401749
vt 0.710128 0.395128
vt 0.500154 0.816556
vt 0.547741 0.701194
vt 0.293965 0.648460
vt 0.834452 0.745727
vt 0.833592 0.745727
vt 0.833592 0.886496
vt 0.834452 0.886496
vt 0.837445 0.745727
vt 0.838032 0.745727
vt 0.838032 0.886496
vt 0.837445 0.886496
vt 0.835626 0.745727
vt 0.835626 0.886496
vt 0.838619 0.745727
vt 0.838619 0.886496
vt 0.836800 0.745727
vt 0.836800 0.886496
vt 0.837660 0.745727
vt 0.837660 0.886496
vt 0.834687 0.889990
vt 0.833999 0.889990
vt 0.834452 0.817930
vt 0.835626 0.818088
vt 0.836800 0.817930
vt 0.837660 0.817501
vt 0.837975 0.816913
vt 0.837660 0.816326
vt 0.836800 0.815897
vt 0.835626 0.815739
vt 0.834452 0.815897
vt 0.833592 0.816326
vt 0.833278 0.816913
vt 0.833592 0.817501
vt 0.836565 0.889990
vt 0.837253 0.889990
vt 0.836277 0.891738
vt 0.836002 0.891738
vt 0.835626 0.889990
vt 0.838032 0.889990
vt 0.837562 0.889990
vt 0.838502 0.889990
vt 0.835250 0.817239
vt 0.834975 0.817101
vt 0.834875 0.816913
vt 0.834975 0.816725
vt 0.835250 0.816588
vt 0.835626 0.816538
vt 0.836002 0.816588
vt 0.836277 0.816725
vt 0.836378 0.816913
vt 0.836277 0.817101
vt 0.836002 0.817239
vt 0.835626 0.817289
vt 0.835250 0.891738
vt 0.834975 0.891738
vt 0.835626 0.891738
vt 0.838032 0.891738
vt 0.837844 0.891738
vt 0.838220 0.891738
vt 0.784744 0.745727
vt 0.785604 0.745727
vt 0.785604 0.886496
vt 0.784744 0.886496
vt 0.783570 0.745727
vt 0.783570 0.886496
vt 0.782395 0.745727
vt 0.782395 0.886496
vt 0.781536 0.745727
vt 0.781536 0.886496
vt 0.784509 0.889990
vt 0.785197 0.889990
vt 0.784744 0.817930
vt 0.783570 0.818088
vt 0.782395 0.817930
vt 0.781536 0.817501
vt 0.781221 0.816913
vt 0.781536 0.816326
vt 0.782395 0.815897
vt 0.783570 0.815739
vt 0.784744 0.815897
vt 0.785604 0.816326
vt 0.785918 0.816913
vt 0.785604 0.817501
vt 0.782630 0.889990
vt 0.781943 0.889990
vt 0.782919 0.891738
vt 0.783194 0.891738
vt 0.783570 0.889990
vt 0.783946 0.817239
vt 0.784221 0.817101
vt 0.784321 0.816913
vt 0.784221 0.816725
vt 0.783946 0.816588
vt 0.783570 0.816538
vt 0.783194 0.816588
vt 0.782919 0.816725
vt 0.782818 0.816913
vt 0.782919 0.817101
vt 0.783194 0.817239
vt 0.783570 0.817289
vt 0.783946 0.891738
vt 0.784221 0.891738
vt 0.783570 0.891738
vt 0.889167 0.745727
vt 0.889755 0.745727
vt 0.889755 0.886496
vt 0.889167 0.886496
vt 0.890342 0.745727
vt 0.890342 0.886496
vt 0.834452 0.869653
vt 0.835626 0.869810
vt 0.836800 0.869653
vt 0.837660 0.869223
vt 0.837975 0.868636
vt 0.837660 0.868049
vt 0.836800 0.867619
vt 0.835626 0.867462
vt 0.834452 0.867619
vt 0.833592 0.868049
vt 0.833278 0.868636
vt 0.833592 0.869223
vt 0.889755 0.889990
vt 0.889285 0.889990
vt 0.890224 0.889990
vt 0.835250 0.868961
vt 0.834975 0.868824
vt 0.834875 0.868636
vt 0.834975 0.868448
vt 0.835250 0.868310
vt 0.835626 0.868260
vt 0.836002 0.868310
vt 0.836277 0.868448
vt 0.836378 0.868636
vt 0.836277 0.868824
vt 0.836002 0.868961
vt 0.835626 0.869012
vt 0.889755 0.891738
vt 0.889567 0.891738
vt 0.889942 0.891738
vt 0.784744 0.869653
vt 0.783570 0.869810
vt 0.782395 0.869653
vt 0.781536 0.869223
vt 0.781221 0.868636
vt 0.781536 0.868049
vt 0.782395 0.867619
vt 0.783570 0.867462
vt 0.784744 0.867619
vt 0.785604 0.868049
vt 0.785918 0.868636
vt 0.785604 0.869223
vt 0.783946 0.868961
vt 0.784221 0.868824
vt 0.784321 0.868636
vt 0.784221 0.868448
vt 0.783946 0.868310
vt 0.783570 0.868260
vt 0.783194 0.868310
vt 0.782919 0.868448
vt 0.782818 0.868636
vt 0.782919 0.868824
vt 0.783194 0.868961
vt 0.783570 0.869012
vt 0.315421 0.423828
vt 0.315421 0.444333
vt 0.397441 0.444333
vt 0.397441 0.423828
s 0
usemtl Material
f 5/1/1 16/1/1 24/1/1 21/1/1
f 4/2/2 3/3/2 7/4/2 8/5/2
f 57/6/1 59/7/1 5/1/1 6/8/1
f 57/9/3 60/10/3 4/2/3 8/11/3
f 60/10/4 58/12/4 3/3/4 4/2/4
f 6/8/5 5/1/5 1/13/5 2/14/5
f 15/15/1 80/16/1 65/17/1 64/18/1
f 59/7/6 7/19/6 18/19/6 65/20/6
f 58/12/6 79/21/6 17/13/6 66/22/6
f 3/3/4 9/3/4 26/3/4 19/3/4
f 13/23/7 12/24/7 67/25/7 69/26/7
f 18/4/2 9/3/2 12/27/2 13/28/2
f 9/3/3 66/22/3 75/29/3 73/30/3
f 66/31/4 17/32/4 14/33/4 63/34/4
f 63/24/8 62/35/8 71/36/8 74/37/8
f 64/23/9 65/38/9 78/39/9 77/26/9
f 14/33/10 15/15/10 10/40/10 11/41/10
f 63/34/11 14/33/11 11/41/11 62/42/11
f 25/19/1 20/19/1 28/19/1 33/19/1
f 24/1/2 23/13/2 31/13/2 32/1/2
f 1/13/5 5/1/5 21/1/5 22/13/5
f 18/19/1 7/19/1 20/19/1 25/19/1
f 7/4/2 3/3/2 19/3/2 20/4/2
f 17/13/12 1/13/12 22/13/12 23/13/12
f 9/3/5 18/4/5 25/4/5 26/3/5
f 28/4/6 129/43/6 27/3/6 34/3/6 33/4/6
f 30/13/5 29/1/5 35/1/5 43/44/5 39/45/5 41/46/5 36/13/5
f 23/13/4 22/13/4 30/13/4 31/13/4
f 20/4/2 19/3/2 27/3/2 129/43/2 28/4/2
f 26/3/5 25/4/5 33/4/5 34/3/5
f 19/3/4 26/3/4 34/3/4 27/3/4
f 21/1/1 24/1/1 32/1/1 29/1/1
f 22/13/5 21/1/5 29/1/5 30/13/5
f 43/44/6 35/1/6 38/1/6 44/44/6
f 32/1/2 31/13/2 37/13/2 42/46/2 40/45/2 44/44/2 38/1/2
f 31/13/4 30/13/4 36/13/4 37/13/4
f 29/1/1 32/1/1 38/1/1 35/1/1
f 41/46/5 39/45/5 46/45/5 49/46/5
f 36/13/6 41/46/6 42/46/6 37/13/6
f 42/46/4 41/46/4 49/46/4 50/46/4
f 48/45/13 50/46/13 56/46/13 54/45/13
f 45/44/14 47/44/14 53/44/14 51/44/14
f 44/44/2 40/45/2 48/45/2 47/44/2
f 43/44/1 44/44/1 47/44/1 45/44/1
f 40/45/2 42/46/2 50/46/2 48/45/2
f 39/45/5 43/44/5 45/44/5 46/45/5
f 55/46/6 52/45/6 54/45/6 56/46/6
f 52/45/6 51/44/6 53/44/6 54/45/6
f 46/45/15 45/44/15 51/44/15 52/45/15
f 50/46/16 49/46/16 55/46/16 56/46/16
f 49/46/15 46/45/15 52/45/15 55/46/15
f 47/44/13 48/45/13 54/45/13 53/44/13
f 18/4/17 13/28/17 69/47/17 72/4/17
f 11/41/6 10/40/6 61/48/6 62/42/6
f 66/49/18 63/24/18 74/37/18 75/50/18
f 24/1/2 16/1/2 80/51/2 15/1/2
f 15/15/19 64/18/19 61/48/19 10/40/19
f 3/3/6 58/12/6 66/22/6 9/3/6
f 5/1/6 59/7/6 65/20/6 80/51/6 16/1/6
f 2/14/4 1/13/4 79/21/4 58/12/4 60/10/4
f 6/52/3 2/14/3 60/10/3 57/9/3
f 8/53/1 7/19/1 59/7/1 57/6/1
f 77/54/19 69/55/19 70/56/19 76/57/19
f 78/58/1 72/59/1 69/60/1 77/61/1
f 71/62/6 76/63/6 70/64/6 68/65/6
f 69/26/20 67/25/20 68/36/20 70/66/20
f 67/60/21 74/61/21 71/67/21 68/68/21
f 73/59/22 75/58/22 74/61/22 67/60/22
f 61/69/23 64/23/23 77/26/23 76/66/23
f 12/27/24 9/3/24 73/30/24 67/70/24
f 62/35/25 61/69/25 76/66/25 71/36/25
f 65/20/3 18/19/3 72/4/3 78/71/3
f 22/72/1 1/72/1 79/72/1 23/72/1
f 17/13/5 23/13/5 79/72/5
f 82/73/26 83/74/26 95/75/26 94/76/26
f 89/77/27 90/78/27 102/79/27 101/80/27
f 86/73/28 87/81/28 99/82/28 98/76/28
f 83/83/29 84/78/29 96/79/29 95/84/29
f 90/78/30 91/83/30 103/84/30 102/79/30
f 87/81/31 88/85/31 100/86/31 99/82/31
f 84/78/32 85/77/32 97/80/32 96/79/32
f 91/87/33 92/85/33 104/86/33 103/88/33
f 81/81/34 82/73/34 94/76/34 93/82/34
f 88/85/35 89/87/35 101/88/35 100/86/35
f 85/74/36 86/73/36 98/76/36 97/75/36
f 92/85/37 81/81/37 93/82/37 104/86/37
f 97/75/38 98/76/38 110/89/38 109/90/38
f 82/91/3 81/92/3 92/93/3 91/94/3 90/95/3 89/96/3 88/97/3 87/98/3 86/99/3 85/100/3 84/101/3 83/102/3
f 112/103/39 113/104/39 125/105/39 124/106/39
f 104/86/40 93/82/40 106/107/40 116/103/40
f 94/76/41 95/75/41 107/90/41 105/89/41
f 101/80/42 102/79/42 114/108/42 113/109/42
f 98/76/43 99/82/43 111/107/43 110/89/43
f 95/84/44 96/79/44 108/108/44 107/110/44
f 102/79/45 103/84/45 115/110/45 114/108/45
f 99/82/46 100/86/46 112/103/46 111/107/46
f 96/79/47 97/80/47 109/109/47 108/108/47
f 103/88/48 104/86/48 116/103/48 115/104/48
f 93/82/49 94/76/49 105/89/49 106/107/49
f 100/86/50 101/88/50 113/104/50 112/103/50
f 117/111/6 119/112/6 120/113/6 121/114/6 122/115/6 123/116/6 124/117/6 125/118/6 126/119/6 127/120/6 128/121/6 118/122/6
f 109/90/51 110/89/51 122/123/51 121/124/51
f 116/103/52 106/107/52 118/125/52 128/106/52
f 105/89/53 107/90/53 119/124/53 117/123/53
f 113/109/54 114/108/54 126/126/54 125/127/54
f 110/89/55 111/107/55 123/125/55 122/123/55
f 107/110/56 108/108/56 120/126/56 119/128/56
f 114/108/57 115/110/57 127/128/57 126/126/57
f 111/107/58 112/103/58 124/106/58 123/125/58
f 108/108/59 109/109/59 121/127/59 120/126/59
f 115/104/60 116/103/60 128/106/60 127/105/60
f 106/107/61 105/89/61 117/123/61 118/125/61
f 131/129/36 132/130/36 144/131/36 143/132/36
f 138/77/30 139/78/30 151/79/30 150/80/30
f 135/129/34 136/133/34 148/134/34 147/132/34
f 132/83/32 133/78/32 145/79/32 144/84/32
f 139/78/27 140/83/27 152/84/27 151/79/27
f 136/133/37 137/135/37 149/136/37 148/134/37
f 133/78/29 134/77/29 146/80/29 145/79/29
f 140/137/35 141/135/35 153/136/35 152/138/35
f 130/133/28 131/129/28 143/132/28 142/134/28
f 137/135/33 138/137/33 150/138/33 149/136/33
f 134/130/26 135/129/26 147/132/26 146/131/26
f 141/135/31 130/133/31 142/134/31 153/136/31
f 146/131/62 147/132/62 159/139/62 158/140/62
f 131/141/6 130/142/6 141/143/6 140/144/6 139/145/6 138/146/6 137/147/6 136/148/6 135/149/6 134/150/6 133/151/6 132/152/6
f 161/153/63 162/154/63 174/155/63 173/156/63
f 153/136/64 142/134/64 155/157/64 165/153/64
f 143/132/65 144/131/65 156/140/65 154/139/65
f 150/80/66 151/79/66 163/108/66 162/109/66
f 147/132/67 148/134/67 160/157/67 159/139/67
f 144/84/68 145/79/68 157/108/68 156/110/68
f 151/79/69 152/84/69 164/110/69 163/108/69
f 148/134/70 149/136/70 161/153/70 160/157/70
f 145/79/71 146/80/71 158/109/71 157/108/71
f 152/138/72 153/136/72 165/153/72 164/154/72
f 142/134/73 143/132/73 154/139/73 155/157/73
f 149/136/74 150/138/74 162/154/74 161/153/74
f 166/158/3 168/159/3 169/160/3 170/161/3 171/162/3 172/163/3 173/164/3 174/165/3 175/166/3 176/167/3 177/168/3 167/169/3
f 158/140/75 159/139/75 171/170/75 170/171/75
f 165/153/76 155/157/76 167/172/76 177/156/76
f 154/139/77 156/140/77 168/171/77 166/170/77
f 162/109/78 163/108/78 175/126/78 174/127/78
f 159/139/79 160/157/79 172/172/79 171/170/79
f 156/110/80 157/108/80 169/126/80 168/128/80
f 163/108/81 164/110/81 176/128/81 175/126/81
f 160/157/82 161/153/82 173/156/82 172/172/82
f 157/108/83 158/109/83 170/127/83 169/126/83
f 164/154/84 165/153/84 177/156/84 176/155/84
f 155/157/85 154/139/85 166/170/85 167/172/85
f 179/73/26 180/74/26 192/75/26 191/76/26
f 186/173/27 187/174/27 199/175/27 198/176/27
f 183/73/28 184/81/28 196/82/28 195/76/28
f 180/177/29 181/174/29 193/175/29 192/178/29
f 187/174/30 188/177/30 200/178/30 199/175/30
f 184/81/31 185/85/31 197/86/31 196/82/31
f 181/174/32 182/173/32 194/176/32 193/175/32
f 188/87/33 189/85/33 201/86/33 200/88/33
f 178/81/34 179/73/34 191/76/34 190/82/34
f 185/85/35 186/87/35 198/88/35 197/86/35
f 182/74/36 183/73/36 195/76/36 194/75/36
f 189/85/37 178/81/37 190/82/37 201/86/37
f 194/75/38 195/76/38 207/89/38 206/90/38
f 179/179/3 178/180/3 189/181/3 188/182/3 187/183/3 186/184/3 185/185/3 184/186/3 183/187/3 182/188/3 181/189/3 180/190/3
f 209/103/39 210/104/39 222/105/39 221/106/39
f 201/86/40 190/82/40 203/107/40 213/103/40
f 191/76/41 192/75/41 204/90/41 202/89/41
f 198/176/42 199/175/42 211/191/42 210/192/42
f 195/76/43 196/82/43 208/107/43 207/89/43
f 192/178/44 193/175/44 205/191/44 204/193/44
f 199/175/45 200/178/45 212/193/45 211/191/45
f 196/82/46 197/86/46 209/103/46 208/107/46
f 193/175/47 194/176/47 206/192/47 205/191/47
f 200/88/48 201/86/48 213/103/48 212/104/48
f 190/82/49 191/76/49 202/89/49 203/107/49
f 197/86/50 198/88/50 210/104/50 209/103/50
f 214/194/6 216/195/6 217/196/6 218/197/6 219/198/6 220/199/6 221/200/6 222/201/6 223/202/6 224/203/6 225/204/6 215/205/6
f 206/90/51 207/89/51 219/123/51 218/124/51
f 213/103/52 203/107/52 215/125/52 225/106/52
f 202/89/53 204/90/53 216/124/53 214/123/53
f 210/192/54 211/191/54 223/206/54 222/207/54
f 207/89/55 208/107/55 220/125/55 219/123/55
f 204/193/56 205/191/56 217/206/56 216/208/56
f 211/191/57 212/193/57 224/208/57 223/206/57
f 208/107/58 209/103/58 221/106/58 220/125/58
f 205/191/59 206/192/59 218/207/59 217/206/59
f 212/104/60 213/103/60 225/106/60 224/105/60
f 203/107/61 202/89/61 214/123/61 215/125/61
f 227/129/36 228/130/36 240/131/36 239/132/36
f 234/173/30 235/174/30 247/175/30 246/176/30
f 231/129/34 232/133/34 244/134/34 243/132/34
f 228/177/32 229/174/32 241/175/32 240/178/32
f 235/174/27 236/177/27 248/178/27 247/175/27
f 232/133/37 233/135/37 245/136/37 244/134/37
f 229/174/29 230/173/29 242/176/29 241/175/29
f 236/137/35 237/135/35 249/136/35 248/138/35
f 226/133/28 227/129/28 239/132/28 238/134/28
f 233/135/33 234/137/33 246/138/33 245/136/33
f 230/130/26 231/129/26 243/132/26 242/131/26
f 237/135/31 226/133/31 238/134/31 249/136/31
f 242/131/62 243/132/62 255/139/62 254/140/62
f 227/209/6 226/210/6 237/211/6 236/212/6 235/213/6 234/214/6 233/215/6 232/216/6 231/217/6 230/218/6 229/219/6 228/220/6
f 257/153/63 258/154/63 270/155/63 269/156/63
f 249/136/64 238/134/64 251/157/64 261/153/64
f 239/132/65 240/131/65 252/140/65 250/139/65
f 246/176/66 247/175/66 259/191/66 258/192/66
f 243/132/67 244/134/67 256/157/67 255/139/67
f 240/178/68 241/175/68 253/191/68 252/193/68
f 247/175/69 248/178/69 260/193/69 259/191/69
f 244/134/70 245/136/70 257/153/70 256/157/70
f 241/175/71 242/176/71 254/192/71 253/191/71
f 248/138/72 249/136/72 261/153/72 260/154/72
f 238/134/73 239/132/73 250/139/73 251/157/73
f 245/136/74 246/138/74 258/154/74 257/153/74
f 262/221/3 264/222/3 265/223/3 266/224/3 267/225/3 268/226/3 269/227/3 270/228/3 271/229/3 272/230/3 273/231/3 263/232/3
f 254/140/75 255/139/75 267/170/75 266/171/75
f 261/153/76 251/157/76 263/172/76 273/156/76
f 250/139/77 252/140/77 264/171/77 262/170/77
f 258/192/78 259/191/78 271/206/78 270/207/78
f 255/139/79 256/157/79 268/172/79 267/170/79
f 252/193/80 253/191/80 265/206/80 264/208/80
f 259/191/81 260/193/81 272/208/81 271/206/81
f 256/157/82 257/153/82 269/156/82 268/172/82
f 253/191/83 254/192/83 266/207/83 265/206/83
f 260/154/84 261/153/84 273/156/84 272/155/84
f 251/157/85 250/139/85 262/170/85 263/172/85
f 275/233/3 277/234/3 276/235/3 274/236/3
f 279/233/6 278/236/6 280/235/6 281/234/6
f 292/233/86 290/236/86 278/236/86 279/233/86
f 293/235/87 291/234/87 281/234/87 280/235/87
f 290/236/88 293/235/88 280/235/88 278/236/88
f 291/234/89 292/233/89 279/233/89 281/234/89
f 289/234/90 286/233/90 283/233/90 284/234/90
f 288/236/91 287/235/91 285/235/91 282/236/91
f 287/235/92 289/234/92 284/234/92 285/235/92
f 286/233/93 288/236/93 282/236/93 283/233/93
f 275/233/94 274/236/94 288/236/94 286/233/94
f 276/235/95 277/234/95 289/234/95 287/235/95
f 274/236/91 276/235/91 287/235/91 288/236/91
f 277/234/90 275/233/90 286/233/90 289/234/90
f 284/234/96 283/233/96 292/233/96 291/234/96
f 282/236/97 285/235/97 293/235/97 290/236/97
f 285/235/98 284/234/98 291/234/98 293/235/98
f 283/233/99 282/236/99 290/236/99 292/233/99
