# Blender 5.2.1 LTS
# www.blender.org
mtllib street-lamp.mtl
o Cube
v -0.036883 2.000000 0.036883
v 0.203125 0.000000 -0.203125
v -0.036883 2.000000 -0.036883
v 0.203125 0.000000 0.203125
v 0.036883 2.000000 0.036883
v -0.203125 0.000000 -0.203125
v 0.036883 2.000000 -0.036883
v -0.203125 0.000000 0.203125
v 0.036883 0.310000 -0.036883
v 0.036883 0.310000 0.036883
v -0.036883 0.310000 -0.036883
v -0.036883 0.310000 0.036883
v -0.203125 0.100000 0.203125
v -0.203125 0.100000 -0.203125
v 0.203125 0.100000 0.203125
v 0.203125 0.100000 -0.203125
v -0.162500 0.110000 0.162500
v 0.162500 0.110000 0.162500
v -0.162500 0.110000 -0.162500
v 0.162500 0.110000 -0.162500
v -0.162500 0.200000 0.162500
v 0.162500 0.200000 0.162500
v -0.162500 0.200000 -0.162500
v 0.162500 0.200000 -0.162500
v -0.113750 0.210000 0.113750
v 0.113750 0.210000 0.113750
v -0.113750 0.210000 -0.113750
v 0.113750 0.210000 -0.113750
v -0.113750 0.300000 0.113750
v 0.113750 0.300000 0.113750
v -0.113750 0.300000 -0.113750
v 0.113750 0.300000 -0.113750
v 0.111486 2.000000 0.111486
v 0.111486 2.000000 -0.111486
v -0.111486 2.000000 -0.111486
v -0.111486 2.000000 0.111486
v 0.167230 2.475200 0.167230
v 0.167230 2.475200 -0.167230
v -0.167230 2.475200 -0.167230
v -0.167230 2.475200 0.167230
v 0.000000 2.592057 0.000000
v -0.000000 2.563608 -0.000000
v -0.000000 2.568192 0.017107
v -0.000000 2.580715 0.029631
v -0.000000 2.597822 0.034214
v -0.000000 2.614930 0.029631
v -0.000000 2.627453 0.017107
v -0.000000 2.632037 -0.000000
v -0.017038 2.568192 0.008554
v -0.029510 2.580715 0.014815
v -0.034075 2.597822 0.017107
v -0.029510 2.614930 0.014815
v -0.017038 2.627453 0.008554
v -0.017038 2.568192 -0.008554
v -0.029510 2.580715 -0.014815
v -0.034075 2.597822 -0.017107
v -0.029510 2.614930 -0.014815
v -0.017038 2.627453 -0.008554
v -0.000000 2.568192 -0.017107
v -0.000000 2.580715 -0.029631
v 0.000000 2.597822 -0.034214
v -0.000000 2.614930 -0.029631
v -0.000000 2.627453 -0.017107
v 0.017038 2.568192 -0.008554
v 0.029510 2.580715 -0.014815
v 0.034075 2.597822 -0.017107
v 0.029510 2.614930 -0.014815
v 0.017038 2.627453 -0.008554
v 0.017038 2.568192 0.008554
v 0.029510 2.580715 0.014815
v 0.034075 2.597822 0.017107
v 0.029510 2.614930 0.014815
v 0.017038 2.627453 0.008554
v -0.114274 2.023760 -0.100338
v -0.114274 2.023760 0.100338
v -0.164442 2.451440 -0.150507
v -0.164442 2.451440 0.150507
v 0.100338 2.023760 -0.114274
v -0.100338 2.023760 -0.114274
v 0.150507 2.451440 -0.164442
v -0.150507 2.451440 -0.164442
v 0.114274 2.023760 0.100338
v 0.114274 2.023760 -0.100338
v 0.164442 2.451440 0.150507
v 0.164442 2.451440 -0.150507
v -0.100338 2.023760 0.114274
v 0.100338 2.023760 0.114274
v -0.150507 2.451440 0.164442
v 0.150507 2.451440 0.164442
v 0.139358 2.237600 0.139358
v 0.139358 2.237600 -0.139358
v -0.139358 2.237600 0.139358
v -0.139358 2.237600 -0.139358
v -0.139358 2.237600 0.125422
v -0.139358 2.237600 -0.125422
v 0.125422 2.237600 -0.139358
v -0.125422 2.237600 -0.139358
v 0.139358 2.237600 0.125422
v 0.139358 2.237600 -0.125422
v 0.125422 2.237600 0.139358
v -0.125422 2.237600 0.139358
v -0.163188 2.440748 -0.135456
v -0.163188 2.440748 0.135456
v -0.140612 2.248292 0.112880
v 0.135456 2.440748 -0.163188
v -0.135456 2.440748 -0.163188
v 0.163188 2.440748 0.135456
v 0.163188 2.440748 -0.135456
v 0.140612 2.248292 0.112880
v -0.135456 2.440748 0.163188
v 0.135456 2.440748 0.163188
v 0.112880 2.248292 0.140612
v -0.112880 2.248292 0.140612
v -0.140612 2.248292 -0.112880
v 0.112880 2.248292 -0.140612
v -0.112880 2.248292 -0.140612
v 0.140612 2.248292 -0.112880
v -0.115528 2.034452 -0.090304
v -0.115528 2.034452 0.090304
v -0.138104 2.226908 -0.112880
v 0.090304 2.034452 -0.115528
v -0.090304 2.034452 -0.115528
v 0.112880 2.226908 -0.138104
v -0.112880 2.226908 -0.138104
v 0.115528 2.034452 0.090304
v 0.115528 2.034452 -0.090304
v 0.138104 2.226908 -0.112880
v -0.090304 2.034452 0.115528
v 0.090304 2.034452 0.115528
v -0.138104 2.226908 0.112880
v 0.138104 2.226908 0.112880
v 0.112880 2.226908 0.138104
v -0.112880 2.226908 0.138104
v 0.126746 2.248292 -0.126746
v 0.125492 2.226908 -0.125492
v 0.126746 2.248292 0.126746
v 0.125492 2.226908 0.125492
v -0.126746 2.248292 0.126746
v -0.125492 2.226908 0.125492
v -0.126746 2.248292 -0.126746
v -0.125492 2.226908 -0.125492
v 0.200676 2.467280 0.200676
v 0.200676 2.467280 -0.200676
v -0.200676 2.467280 -0.200676
v -0.200676 2.467280 0.200676
v 0.000000 2.599977 0.000000
v 0.200676 2.459497 0.200676
v 0.200676 2.459497 -0.200676
v -0.200676 2.459497 -0.200676
v -0.200676 2.459497 0.200676
v 0.000000 2.459497 0.000000
v -0.132948 2.237600 0.147719
v 0.132948 2.237600 0.147719
v 0.147719 2.237600 0.132948
v 0.147719 2.237600 -0.132948
v 0.132948 2.237600 -0.147719
v -0.132948 2.237600 -0.147719
v -0.147719 2.237600 -0.132948
v -0.147719 2.237600 0.132948
v -0.119653 2.248934 0.149049
v 0.119653 2.248934 0.149049
v 0.149049 2.248934 0.119653
v 0.149049 2.248934 -0.119653
v 0.119653 2.248934 -0.149049
v -0.119653 2.248934 -0.149049
v -0.149049 2.248934 -0.119653
v -0.149049 2.248934 0.119653
v -0.119653 2.226267 0.146390
v 0.119653 2.226267 0.146390
v 0.146390 2.226267 0.119653
v 0.146390 2.226267 -0.119653
v 0.119653 2.226267 -0.146390
v -0.119653 2.226267 -0.146390
v -0.146390 2.226267 -0.119653
v -0.146390 2.226267 0.119653
v 0.145191 2.237600 0.145191
v 0.143755 2.249727 0.143755
v 0.142333 2.225473 0.142333
v -0.143755 2.249727 0.143755
v -0.145191 2.237600 0.145191
v -0.142333 2.225473 0.142333
v -0.143755 2.249727 -0.143755
v -0.145191 2.237600 -0.145191
v -0.142333 2.225473 -0.142333
v 0.143755 2.249727 -0.143755
v 0.145191 2.237600 -0.145191
v 0.142333 2.225473 -0.142333
v 0.119290 2.000000 0.119290
v 0.119290 2.000000 -0.119290
v -0.119290 2.000000 -0.119290
v -0.119290 2.000000 0.119290
v 0.124062 2.020000 0.124062
v 0.124062 2.020000 -0.124062
v -0.124062 2.020000 -0.124062
v -0.124062 2.020000 0.124062
v 0.124062 2.033681 0.124062
v 0.124062 2.033681 -0.124062
v -0.124062 2.033681 -0.124062
v -0.124062 2.033681 0.124062
v 0.000000 2.033681 0.000000
vn -0.0000 -0.0000 1.0000
vn -0.2390 0.9710 -0.0000
vn -0.0000 0.9710 -0.2390
vn -0.0000 -1.0000 -0.0000
vn -0.0000 -0.0000 -1.0000
vn -1.0000 -0.0000 -0.0000
vn 1.0000 -0.0000 -0.0000
vn -0.0000 1.0000 -0.0000
vn 0.2390 0.9710 -0.0000
vn -0.0000 0.9710 0.2390
vn -0.0000 0.9796 0.2009
vn 0.2009 0.9796 -0.0000
vn -0.0000 0.9796 -0.2009
vn -0.2009 0.9796 -0.0000
vn -0.1290 -0.9916 -0.0000
vn -0.0000 -0.9916 0.1290
vn 0.1290 -0.9916 -0.0000
vn -0.0000 -0.9916 -0.1290
vn 0.2304 0.9731 -0.0000
vn -0.2304 0.9731 -0.0000
vn -0.8549 -0.0000 0.5188
vn -0.7383 -0.4965 0.4565
vn -0.0000 -0.4703 0.8825
vn -0.0000 -0.8334 0.5527
vn -0.4426 -0.8489 0.2890
vn -0.4426 0.8489 0.2890
vn -0.0000 0.8334 0.5527
vn -0.0000 0.4703 0.8825
vn -0.7383 0.4965 0.4565
vn -0.4426 0.8489 -0.2890
vn -0.7383 0.4965 -0.4565
vn -0.8549 -0.0000 -0.5188
vn -0.7383 -0.4965 -0.4565
vn -0.4425 -0.8489 -0.2890
vn -0.0000 0.8334 -0.5527
vn -0.0000 0.4703 -0.8825
vn -0.0000 -0.4703 -0.8825
vn -0.0000 -0.8334 -0.5527
vn 0.7383 0.4965 -0.4565
vn 0.8549 -0.0000 -0.5188
vn 0.7383 -0.4965 -0.4565
vn 0.4425 -0.8489 -0.2890
vn 0.4426 0.8489 -0.2890
vn 0.7383 -0.4965 0.4565
vn 0.4426 -0.8489 0.2890
vn 0.4426 0.8489 0.2890
vn 0.7383 0.4965 0.4565
vn 0.8549 -0.0000 0.5188
vn -0.9932 0.1165 -0.0000
vn -0.0000 0.1165 -0.9932
vn -0.0000 0.1165 0.9932
vn 0.9932 0.1165 -0.0000
vn 0.4849 -0.6889 -0.5388
vn -0.0000 0.9970 0.0772
vn -0.6976 -0.1637 -0.6976
vn 0.6976 -0.1637 -0.6976
vn 0.6976 -0.1637 0.6976
vn -0.6976 -0.1637 0.6976
vn -0.0000 -0.9971 -0.0758
vn 0.5240 0.6216 -0.5823
vn 0.5823 0.6216 -0.5240
vn -0.5388 -0.6889 -0.4849
vn 0.0759 -0.9971 -0.0000
vn 0.5240 0.6216 0.5823
vn -0.0000 -0.0586 -0.9983
vn -0.9983 -0.0586 -0.0000
vn -0.0000 -0.0586 0.9983
vn 0.9983 -0.0586 -0.0000
vn -0.0000 0.9731 0.2304
vn -0.0000 0.9731 -0.2304
vn -0.0000 0.8341 0.5516
vn -0.0000 0.8341 -0.5516
vn -0.5516 0.8341 -0.0000
vn 0.5516 0.8341 -0.0000
vn -0.5823 0.6216 -0.5240
vn -0.0759 -0.9971 -0.0000
vn -0.4849 -0.6889 0.5388
vn 0.0772 0.9970 -0.0000
vn -0.5823 0.6216 0.5240
vn 0.4849 -0.6889 0.5388
vn -0.4849 -0.6889 -0.5388
vn -0.0000 0.9970 -0.0772
vn 0.5823 0.6216 0.5240
vn -0.5240 0.6216 0.5823
vn -0.0772 0.9970 -0.0000
vn 0.5388 -0.6889 -0.4849
vn -0.5240 0.6216 -0.5823
vn -0.5388 -0.6889 0.4849
vn -0.0000 -0.9971 0.0758
vn 0.5388 -0.6889 0.4849
vn 0.0421 0.9982 -0.0421
vn 0.0421 0.9982 0.0421
vn -0.2057 0.1336 -0.9695
vn -0.9695 0.1336 -0.2057
vn 0.0425 -0.9982 0.0425
vn -0.1713 -0.2862 -0.9427
vn -0.9427 -0.2862 -0.1713
vn 0.2057 0.1336 -0.9695
vn 0.9695 0.1336 -0.2057
vn 0.9427 -0.2862 -0.1713
vn 0.1713 -0.2862 -0.9427
vn -0.0421 0.9982 0.0421
vn -0.0425 -0.9982 0.0425
vn 0.9427 -0.2862 0.1713
vn 0.1713 -0.2862 0.9427
vn 0.2057 0.1336 0.9695
vn 0.9695 0.1336 0.2057
vn -0.0421 0.9982 -0.0421
vn -0.0425 -0.9982 -0.0425
vn -0.2057 0.1336 0.9695
vn -0.9695 0.1336 0.2057
vn -0.9427 -0.2862 0.1713
vn -0.1713 -0.2862 0.9427
vn 0.0425 -0.9982 -0.0425
vn -0.0000 -0.2321 0.9727
vn -0.0000 -0.2321 -0.9727
vn -0.9727 -0.2321 -0.0000
vn 0.9727 -0.2321 -0.0000
vt 0.125000 0.500000
vt 0.375000 0.500000
vt 0.125000 0.750000
vt 0.000000 0.000000
vt 0.375000 0.750000
vt 0.666667 0.500000
vt 0.500000 0.500000
vt 0.500000 0.666667
vt 0.666667 0.666667
vt 0.666667 0.833333
vt 0.500000 0.833333
vt 0.583333 1.000000
vt 0.583333 0.000000
vt 0.500000 0.166667
vt 0.666667 0.166667
vt 0.666667 0.333333
vt 0.500000 0.333333
vt 0.416667 0.000000
vt 0.333333 0.166667
vt 0.333333 0.333333
vt 0.333333 0.500000
vt 0.333333 0.666667
vt 0.333333 0.833333
vt 0.416667 1.000000
vt 0.250000 0.000000
vt 0.166667 0.166667
vt 0.166667 0.333333
vt 0.166667 0.500000
vt 0.166667 0.666667
vt 0.166667 0.833333
vt 0.250000 1.000000
vt 0.000000 0.333333
vt 0.000000 0.500000
vt 0.000000 0.666667
vt 0.000000 0.833333
vt 0.000000 0.166667
vt 0.083333 1.000000
vt 0.083333 0.000000
vt 1.000000 0.666667
vt 0.833333 0.666667
vt 0.833333 0.833333
vt 1.000000 0.833333
vt 1.000000 0.166667
vt 0.833333 0.166667
vt 0.833333 0.333333
vt 1.000000 0.333333
vt 1.000000 0.500000
vt 0.833333 0.500000
vt 0.916667 1.000000
vt 0.916667 0.000000
vt 0.750000 1.000000
vt 0.750000 0.000000
s 0
usemtl Material
f 11/1/1 9/2/1 7/2/1 3/1/1
f 13/3/2 17/3/2 19/1/2 14/1/2
f 16/4/3 14/4/3 19/4/3 20/4/3
f 6/1/4 2/2/4 4/5/4 8/3/4
f 10/5/5 12/3/5 1/3/5 5/5/5
f 9/2/6 10/5/6 5/5/6 7/2/6
f 4/5/1 15/5/1 13/3/1 8/3/1
f 12/3/7 11/1/7 3/1/7 1/3/7
f 5/5/8 1/3/8 36/3/8 33/5/8
f 16/2/9 20/2/9 18/5/9 15/5/9
f 15/5/10 18/5/10 17/3/10 13/3/10
f 8/3/6 13/3/6 14/1/6 6/1/6
f 2/2/7 16/2/7 15/5/7 4/5/7
f 6/1/5 14/1/5 16/2/5 2/2/5
f 17/4/1 18/4/1 22/4/1 21/4/1
f 18/4/7 20/4/7 24/4/7 22/4/7
f 21/4/11 22/4/11 26/4/11 25/4/11
f 22/4/12 24/4/12 28/4/12 26/4/12
f 20/4/5 19/4/5 23/4/5 24/4/5
f 19/4/6 17/4/6 21/4/6 23/4/6
f 27/4/6 25/4/6 29/4/6 31/4/6
f 28/4/5 27/4/5 31/4/5 32/4/5
f 24/4/13 23/4/13 27/4/13 28/4/13
f 23/4/14 21/4/14 25/4/14 27/4/14
f 26/4/7 28/4/7 32/4/7 30/4/7
f 25/4/1 26/4/1 30/4/1 29/4/1
f 32/2/15 30/5/15 10/5/15 9/2/15
f 31/1/16 32/2/16 9/2/16 11/1/16
f 29/3/17 31/1/17 11/1/17 12/3/17
f 30/5/18 29/3/18 12/3/18 10/5/18
f 1/3/8 3/1/8 35/1/8 36/3/8
f 7/2/8 5/5/8 33/5/8 34/2/8
f 3/1/8 7/2/8 34/2/8 35/1/8
f 38/2/19 37/5/19 142/5/19 143/2/19
f 40/3/20 39/1/20 144/1/20 145/3/20
s 1
f 45/6/1 51/7/21 50/8/22 44/9/23
f 43/10/24 49/11/25 42/12/4
f 48/13/8 53/14/26 47/15/27
f 46/16/28 52/17/29 51/7/21 45/6/1
f 44/9/23 50/8/22 49/11/25 43/10/24
f 47/15/27 53/14/26 52/17/29 46/16/28
f 48/18/8 58/19/30 53/14/26
f 52/17/29 57/20/31 56/21/32 51/7/21
f 50/8/22 55/22/33 54/23/34 49/11/25
f 53/14/26 58/19/30 57/20/31 52/17/29
f 51/7/21 56/21/32 55/22/33 50/8/22
f 49/11/25 54/23/34 42/24/4
f 48/25/8 63/26/35 58/19/30
f 57/20/31 62/27/36 61/28/5 56/21/32
f 55/22/33 60/29/37 59/30/38 54/23/34
f 58/19/30 63/26/35 62/27/36 57/20/31
f 56/21/32 61/28/5 60/29/37 55/22/33
f 54/23/34 59/30/38 42/31/4
f 62/27/36 67/32/39 66/33/40 61/28/5
f 60/29/37 65/34/41 64/35/42 59/30/38
f 63/26/35 68/36/43 67/32/39 62/27/36
f 61/28/5 66/33/40 65/34/41 60/29/37
f 59/30/38 64/35/42 42/37/4
f 48/38/8 68/36/43 63/26/35
f 65/39/41 70/40/44 69/41/45 64/42/42
f 68/43/43 73/44/46 72/45/47 67/46/39
f 66/47/40 71/48/48 70/40/44 65/39/41
f 64/42/42 69/41/45 42/49/4
f 48/50/8 73/44/46 68/43/43
f 67/46/39 72/45/47 71/48/48 66/47/40
f 73/44/46 47/15/27 46/16/28 72/45/47
f 71/48/48 45/6/1 44/9/23 70/40/44
f 69/41/45 43/10/24 42/51/4
f 48/52/8 47/15/27 73/44/46
f 72/45/47 46/16/28 45/6/1 71/48/48
f 70/40/44 44/9/23 43/10/24 69/41/45
s 0
f 90/5/49 37/5/49 84/5/49 98/5/49
f 92/3/50 40/3/50 88/3/50 101/3/50
f 35/1/51 34/2/51 78/2/51 79/1/51
f 92/3/52 36/3/52 75/3/52 94/3/52
f 98/5/53 109/5/53 162/5/53 154/5/53
f 39/1/52 40/3/52 77/3/52 76/1/52
f 36/3/52 35/1/52 74/1/52 75/3/52
f 93/1/52 39/1/52 76/1/52 95/1/52
f 84/5/49 85/2/49 108/2/49 107/5/49
f 93/1/51 35/1/51 79/1/51 97/1/51
f 91/2/51 38/2/51 80/2/51 96/2/51
f 38/2/51 39/1/51 81/1/51 80/2/51
f 81/1/51 97/1/51 116/1/51 106/1/51
f 37/5/49 38/2/49 85/2/49 84/5/49
f 34/2/49 33/5/49 82/5/49 83/2/49
f 91/2/49 34/2/49 83/2/49 99/2/49
f 77/3/52 94/3/52 104/3/52 103/3/52
f 90/5/50 33/5/50 87/5/50 100/5/50
f 40/3/50 37/5/50 89/5/50 88/3/50
f 33/5/50 36/3/50 86/3/50 87/5/50
f 37/5/50 90/5/50 100/5/50 89/5/50
f 74/1/52 95/1/52 120/1/52 118/1/52
f 38/2/49 91/2/49 99/2/49 85/2/49
f 78/2/51 96/2/51 123/2/51 121/2/51
f 34/2/51 91/2/51 96/2/51 78/2/51
f 39/1/51 93/1/51 97/1/51 81/1/51
f 132/5/54 133/3/54 168/3/54 169/5/54
f 35/1/52 93/1/52 95/1/52 74/1/52
f 87/5/50 86/3/50 128/3/50 129/5/50
f 40/3/52 92/3/52 94/3/52 77/3/52
f 36/3/50 92/3/50 101/3/50 86/3/50
f 33/5/49 90/5/49 98/5/49 82/5/49
f 118/1/55 120/1/55 141/1/55 124/1/55 122/1/55
f 121/2/56 123/2/56 135/2/56 127/2/56 126/2/56
f 131/5/57 137/5/57 132/5/57 129/5/57 125/5/57
f 130/3/58 119/3/58 128/3/58 133/3/58 139/3/58
f 88/3/50 89/5/50 111/5/50 110/3/50
f 98/5/49 84/5/49 107/5/49 109/5/49
f 89/5/50 100/5/50 112/5/50 111/5/50
f 85/2/49 99/2/49 117/2/49 108/2/49
f 101/3/50 88/3/50 110/3/50 113/3/50
f 115/2/59 116/1/59 165/1/59 164/2/59
f 95/1/52 76/1/52 102/1/52 114/1/52
f 131/5/60 98/5/60 154/5/60 170/5/60
f 97/1/61 124/1/61 173/1/61 157/1/61
f 76/1/52 77/3/52 103/3/52 102/1/52
f 96/2/51 80/2/51 105/2/51 115/2/51
f 80/2/51 81/1/51 106/1/51 105/2/51
f 103/3/58 104/3/58 138/3/58 113/3/58 110/3/58
f 114/1/55 102/1/55 106/1/55 116/1/55 140/1/55
f 115/2/56 105/2/56 108/2/56 117/2/56 134/2/56
f 107/5/57 111/5/57 112/5/57 136/5/57 109/5/57
f 82/5/49 98/5/49 131/5/49 125/5/49
f 97/1/51 79/1/51 122/1/51 124/1/51
f 99/2/49 83/2/49 126/2/49 127/2/49
f 100/5/50 87/5/50 129/5/50 132/5/50
f 96/2/62 115/2/62 164/2/62 156/2/62
f 86/3/50 101/3/50 133/3/50 128/3/50
f 94/3/52 75/3/52 119/3/52 130/3/52
f 75/3/52 74/1/52 118/1/52 119/3/52
f 109/5/63 117/2/63 163/2/63 162/5/63
f 79/1/51 78/2/51 121/2/51 122/1/51
f 99/2/64 127/2/64 171/2/64 155/2/64
f 83/2/49 82/5/49 125/5/49 126/2/49
f 115/2/4 134/2/4 140/1/4 116/1/4
f 123/2/8 124/1/8 141/1/8 135/2/8
f 134/2/65 135/2/65 141/1/65 140/1/65
f 114/1/4 140/1/4 138/3/4 104/3/4
f 120/1/8 130/3/8 139/3/8 141/1/8
f 141/1/66 139/3/66 138/3/66 140/1/66
f 132/5/8 137/5/8 139/3/8 133/3/8
f 113/3/4 138/3/4 136/5/4 112/5/4
f 138/3/67 139/3/67 137/5/67 136/5/67
f 109/5/4 136/5/4 134/2/4 117/2/4
f 131/5/8 127/2/8 135/2/8 137/5/8
f 134/2/68 136/5/68 137/5/68 135/2/68
f 102/1/8 103/3/8 110/3/8 111/5/8 107/5/8 108/2/8 105/2/8 106/1/8
f 118/1/4 122/1/4 121/2/4 126/2/4 125/5/4 129/5/4 128/3/4 119/3/4
f 37/5/69 40/3/69 145/3/69 142/5/69
f 39/1/70 38/2/70 143/2/70 144/1/70
f 142/5/71 146/3/71 145/3/71
f 144/1/72 146/2/72 143/2/72
f 145/3/73 146/1/73 144/1/73
f 143/2/74 146/5/74 142/5/74
f 142/5/1 145/3/1 150/3/1 147/5/1
f 144/1/5 143/2/5 148/2/5 149/1/5
f 145/3/6 144/1/6 149/1/6 150/3/6
f 143/2/7 142/5/7 147/5/7 148/2/7
f 147/5/4 150/3/4 151/5/4
f 149/1/4 148/2/4 151/1/4
f 150/3/4 149/1/4 151/3/4
f 148/2/4 147/5/4 151/2/4
f 155/2/49 154/5/49 162/5/49 163/2/49
f 154/5/49 155/2/49 171/2/49 170/5/49
f 157/1/51 156/2/51 164/2/51 165/1/51
f 159/3/52 158/1/52 166/1/52 167/3/52
f 153/5/50 152/3/50 160/3/50 161/5/50
f 156/2/51 157/1/51 173/1/51 172/2/51
f 158/1/52 159/3/52 175/3/52 174/1/52
f 152/3/50 153/5/50 169/5/50 168/3/50
f 123/2/75 96/2/75 156/2/75 172/2/75
f 114/1/76 104/3/76 167/3/76 166/1/76
f 95/1/77 114/1/77 166/1/77 158/1/77
f 127/2/78 131/5/78 170/5/78 171/2/78
f 100/5/79 132/5/79 169/5/79 153/5/79
f 117/2/80 99/2/80 155/2/80 163/2/80
f 104/3/81 94/3/81 159/3/81 167/3/81
f 124/1/82 123/2/82 172/2/82 173/1/82
f 133/3/83 101/3/83 152/3/83 168/3/83
f 120/1/84 95/1/84 158/1/84 174/1/84
f 130/3/85 120/1/85 174/1/85 175/3/85
f 116/1/86 97/1/86 157/1/86 165/1/86
f 94/3/87 130/3/87 175/3/87 159/3/87
f 112/5/88 100/5/88 153/5/88 161/5/88
f 113/3/89 112/5/89 161/5/89 160/3/89
f 101/3/90 113/3/90 160/3/90 152/3/90
f 113/4/91 104/4/91 167/4/91 179/4/91 160/4/91
f 114/4/92 116/4/92 165/4/92 182/4/92 166/4/92
f 157/4/93 183/4/93 182/4/93 165/4/93
f 166/4/94 182/4/94 183/4/94 158/4/94
f 120/4/95 174/4/95 184/4/95 173/4/95 124/4/95
f 184/4/96 183/4/96 157/4/96 173/4/96
f 183/4/97 184/4/97 174/4/97 158/4/97
f 156/4/98 164/4/98 185/4/98 186/4/98
f 185/4/99 163/4/99 155/4/99 186/4/99
f 186/4/100 155/4/100 171/4/100 187/4/100
f 156/4/101 186/4/101 187/4/101 172/4/101
f 115/4/102 117/4/102 163/4/102 185/4/102 164/4/102
f 123/4/103 172/4/103 187/4/103 171/4/103 127/4/103
f 170/5/104 154/5/104 176/4/104 178/4/104
f 178/4/105 176/4/105 153/5/105 169/5/105
f 177/4/106 161/5/106 153/5/106 176/4/106
f 177/4/107 176/4/107 154/5/107 162/5/107
f 162/4/108 109/4/108 112/4/108 161/4/108 177/4/108
f 178/4/109 169/4/109 132/4/109 131/4/109 170/4/109
f 160/4/110 179/4/110 180/4/110 152/3/110
f 179/4/111 167/4/111 159/3/111 180/4/111
f 175/3/112 181/4/112 180/4/112 159/3/112
f 181/4/113 168/3/113 152/3/113 180/4/113
f 130/4/114 133/4/114 168/4/114 181/4/114 175/4/114
f 35/4/4 36/4/4 191/4/4 190/4/4
f 33/4/4 34/4/4 189/4/4 188/4/4
f 36/4/4 33/4/4 188/4/4 191/4/4
f 34/4/4 35/4/4 190/4/4 189/4/4
f 191/4/115 188/4/115 192/4/115 195/4/115
f 189/4/116 190/4/116 194/4/116 193/4/116
f 190/4/117 191/4/117 195/4/117 194/4/117
f 188/4/118 189/4/118 193/4/118 192/4/118
f 193/4/5 194/4/5 198/4/5 197/4/5
f 194/4/6 195/4/6 199/4/6 198/4/6
f 192/4/7 193/4/7 197/4/7 196/4/7
f 195/4/1 192/4/1 196/4/1 199/4/1
f 198/4/8 199/4/8 200/4/8
f 196/4/8 197/4/8 200/4/8
f 199/4/8 196/4/8 200/4/8
f 197/4/8 198/4/8 200/4/8
l 41 146
